<svg width="222" height="77" viewBox="0 0 222 77" fill="none" xmlns="http://www.w3.org/2000/svg">
<path d="M78.455 10.7627H83.3073V35.4605H78.455V10.7627Z" fill="#2389DA"/>
<path d="M101.007 10.7627H105.546V35.4605H101.007V33.3785C99.6702 35.0963 97.7703 35.9549 95.3079 35.9542C92.9385 35.9542 90.9153 35.0544 89.2384 33.2548C87.5614 31.4552 86.7229 29.2492 86.7229 26.6366C86.7229 24.0255 87.5614 21.8194 89.2384 20.0184C90.9153 18.2174 92.9385 17.3176 95.3079 17.3191C97.7703 17.3191 99.6702 18.1776 101.007 19.8947V10.7627ZM92.6507 30.2202C93.5775 31.1496 94.7446 31.6144 96.1518 31.6144C97.559 31.6144 98.7202 31.1496 99.6355 30.2202C100.55 29.2915 101.007 28.098 101.007 26.6399C101.007 25.1817 100.55 23.9882 99.6355 23.0595C98.7202 22.1308 97.559 21.6664 96.1518 21.6664C94.7446 21.6664 93.5775 22.1308 92.6507 23.0595C91.7246 23.989 91.2615 25.1824 91.2615 26.6399C91.2615 28.0973 91.7246 29.2908 92.6507 30.2202Z" fill="#2389DA"/>
<path d="M113.532 28.5093C114.142 30.7205 115.795 31.826 118.492 31.826C120.228 31.826 121.542 31.238 122.434 30.0619L126.092 32.1787C124.356 34.6957 121.8 35.9543 118.422 35.9543C115.514 35.9543 113.18 35.0722 111.421 33.3081C109.662 31.544 108.782 29.3213 108.782 26.64C108.782 23.9819 109.65 21.7649 111.385 19.9892C113.121 18.2135 115.349 17.3257 118.07 17.3257C120.651 17.3257 122.779 18.2193 124.454 20.0066C126.128 21.7939 126.967 24.005 126.97 26.64C126.966 27.2671 126.907 27.8926 126.794 28.5093H113.532ZM113.461 24.9811H122.434C122.175 23.7819 121.641 22.8882 120.832 22.3002C120.031 21.7146 119.062 21.4051 118.07 21.4181C116.851 21.4181 115.842 21.7299 115.041 22.3533C114.24 22.9768 113.714 23.8527 113.461 24.9811Z" fill="#2389DA"/>
<path d="M143.367 17.8193H147.911V35.4606H143.367V33.3785C142.006 35.0964 140.095 35.9549 137.632 35.9542C135.287 35.9542 133.276 35.0544 131.599 33.2549C129.922 31.4553 129.083 29.2492 129.083 26.6367C129.083 24.0255 129.922 21.8195 131.599 20.0185C133.276 18.2174 135.287 17.3176 137.632 17.3191C140.096 17.3191 142.008 18.1777 143.367 19.8948V17.8193ZM134.994 30.2202C135.908 31.1497 137.069 31.6144 138.476 31.6144C139.884 31.6144 141.051 31.1497 141.977 30.2202C142.904 29.2915 143.367 28.0981 143.367 26.6399C143.367 25.1817 142.904 23.9883 141.977 23.0596C141.051 22.1308 139.884 21.6665 138.476 21.6665C137.069 21.6665 135.908 22.1308 134.994 23.0596C134.078 23.989 133.621 25.1825 133.621 26.6399C133.621 28.0974 134.078 29.2908 134.994 30.2202Z" fill="#2389DA"/>
<path d="M152.022 35.4607V9.70508H156.566V35.4607H152.022Z" fill="#2389DA"/>
<path d="M90.1364 69.3708C86.4298 69.3708 83.3687 68.1357 80.9532 65.6657C78.5376 63.1956 77.3298 60.149 77.3298 56.526C77.3298 52.8806 78.5376 49.8286 80.9532 47.3701C83.3687 44.9116 86.4298 43.682 90.1364 43.6813C92.2949 43.6641 94.4214 44.2048 96.3109 45.2512C98.1402 46.2424 99.6664 47.7136 100.726 49.5075L96.5392 51.941C95.9371 50.8445 95.0336 49.9444 93.9361 49.348C92.8095 48.7252 91.5429 48.4139 90.1364 48.4139C87.7433 48.4139 85.8138 49.1665 84.3482 50.6716C82.8826 52.1768 82.1498 54.1283 82.1498 56.526C82.1498 58.9021 82.8826 60.8427 84.3482 62.3479C85.8138 63.8531 87.7433 64.6057 90.1364 64.6057C91.4674 64.6245 92.7811 64.3026 93.9534 63.6704C95.0472 63.0908 95.9465 62.201 96.5392 61.1121L100.726 63.5489C99.6692 65.3378 98.1496 66.8069 96.3282 67.8008C94.4515 68.8482 92.3875 69.3715 90.1364 69.3708Z" fill="#2389DA"/>
<path d="M103.787 68.877V43.1213H108.331V68.877H103.787Z" fill="#2389DA"/>
<path d="M116.312 61.9259C116.922 64.137 118.575 65.2425 121.273 65.2425C123.008 65.2425 124.321 64.6545 125.213 63.4784L128.872 65.5952C127.135 68.1122 124.579 69.3708 121.202 69.3708C118.293 69.3708 115.959 68.4887 114.2 66.7246C112.442 64.9605 111.562 62.7378 111.562 60.0565C111.562 57.3984 112.43 55.1814 114.166 53.4057C115.901 51.63 118.129 50.7422 120.85 50.7422C123.429 50.7422 125.557 51.6358 127.233 53.4231C128.909 55.2104 129.748 57.4215 129.748 60.0565C129.744 60.6836 129.685 61.3091 129.572 61.9259H116.312ZM116.242 58.3976H125.213C124.955 57.1991 124.421 56.3054 123.612 55.7167C122.811 55.1313 121.842 54.8218 120.851 54.8346C119.63 54.8346 118.621 55.1464 117.821 55.7698C117.022 56.3933 116.496 57.2692 116.242 58.3976Z" fill="#2389DA"/>
<path d="M146.146 51.2358H150.69V68.877H146.146V66.795C144.786 68.5129 142.874 69.3714 140.412 69.3707C138.066 69.3707 136.055 68.4709 134.378 66.6713C132.701 64.8718 131.863 62.6657 131.863 60.0531C131.863 57.442 132.701 55.236 134.378 53.435C136.055 51.6339 138.066 50.7342 140.412 50.7356C142.874 50.7356 144.786 51.5942 146.146 53.3113V51.2358ZM137.773 63.6367C138.687 64.5669 139.848 65.0316 141.256 65.0309C142.664 65.0302 143.832 64.5654 144.76 63.6367C145.686 62.708 146.149 61.5146 146.149 60.0564C146.149 58.5982 145.686 57.4048 144.76 56.4761C143.833 55.5473 142.666 55.083 141.259 55.083C139.852 55.083 138.691 55.5473 137.776 56.4761C136.861 57.4062 136.404 58.5997 136.405 60.0564C136.405 61.5131 136.861 62.7066 137.773 63.6367Z" fill="#2389DA"/>
<path d="M164.582 50.7422C166.505 50.7422 168.094 51.3888 169.348 52.6821C170.603 53.9753 171.23 55.763 171.231 58.045V68.8771H166.687V58.6102C166.687 57.4342 166.37 56.5344 165.737 55.9109C165.104 55.2874 164.26 54.9757 163.204 54.9757C162.031 54.9757 161.094 55.3402 160.391 56.0693C159.689 56.7984 159.338 57.8909 159.34 59.3469V68.8728H154.796V51.2358H159.34V53.2115C160.439 51.5653 162.186 50.7422 164.582 50.7422Z" fill="#2389DA"/>
<path d="M177.353 49.119C176.618 49.1072 175.918 48.8092 175.399 48.2881C174.88 47.767 174.584 47.0637 174.573 46.3274C174.571 45.9591 174.644 45.5943 174.786 45.2548C174.928 44.9153 175.137 44.6081 175.401 44.3517C175.649 44.0831 175.951 43.8691 176.286 43.7233C176.621 43.5774 176.983 43.5029 177.348 43.5044C177.72 43.4998 178.089 43.5728 178.431 43.7186C178.774 43.8645 179.082 44.0801 179.337 44.3517C179.6 44.6083 179.809 44.9156 179.951 45.255C180.093 45.5945 180.165 45.9593 180.164 46.3274C180.166 46.6922 180.093 47.0536 179.951 47.3894C179.809 47.7252 179.6 48.0284 179.337 48.2803C179.081 48.5485 178.773 48.7612 178.431 48.9055C178.09 49.0497 177.723 49.1224 177.353 49.119ZM175.101 68.877V51.2357H179.645V68.877H175.101Z" fill="#2389DA"/>
<path d="M193.572 50.7422C195.495 50.7422 197.085 51.3888 198.34 52.6821C199.595 53.9753 200.222 55.763 200.221 58.045V68.8771H195.684V58.6102C195.684 57.4342 195.367 56.5344 194.734 55.9109C194.1 55.2874 193.256 54.9757 192.2 54.9757C191.027 54.9757 190.089 55.3402 189.387 56.0693C188.684 56.7984 188.332 57.8909 188.33 59.3469V68.8728H183.786V51.2358H188.33V53.2115C189.433 51.5653 191.18 50.7422 193.572 50.7422Z" fill="#2389DA"/>
<path d="M217.566 51.2359H222.002V68.0265C222.002 70.7548 221.105 72.8365 219.31 74.2715C217.516 75.7065 215.352 76.424 212.819 76.424C210.919 76.424 209.248 76.0595 207.805 75.3304C206.393 74.6295 205.232 73.5078 204.481 72.119L208.351 69.897C209.241 71.5432 210.776 72.3663 212.957 72.3663C214.388 72.3663 215.514 71.9899 216.335 71.2369C217.157 70.484 217.567 69.4138 217.566 68.0265V66.1246C216.23 67.9126 214.354 68.8066 211.94 68.8066C209.454 68.8066 207.372 67.9303 205.696 66.1778C204.019 64.4252 203.18 62.2915 203.18 59.7766C203.18 57.2834 204.024 55.1547 205.713 53.3906C207.401 51.6265 209.477 50.7444 211.94 50.7444C214.356 50.7444 216.231 51.638 217.566 53.4253V51.2359ZM209.105 63.2528C210.032 64.1591 211.211 64.6118 212.641 64.6111C214.072 64.6104 215.25 64.1576 216.177 63.2528C217.103 62.3465 217.566 61.1892 217.566 59.7809C217.566 58.3929 217.103 57.2461 216.177 56.3406C215.251 55.435 214.072 54.9822 212.641 54.9822C211.21 54.9822 210.031 55.435 209.105 56.3406C208.179 57.2461 207.715 58.3929 207.715 59.7809C207.715 61.1885 208.179 62.3457 209.105 63.2528Z" fill="#2389DA"/>
<path d="M56.3461 36.7908C55.5306 34.0944 54.2167 31.5759 52.4729 29.3665C54.4615 32.0062 55.9135 35.012 56.7465 38.2131C56.6242 37.739 56.4933 37.2638 56.3461 36.7908Z" fill="#2389DA"/>
<path d="M42.3992 17.4006C43.3461 17.4118 44.2587 17.0454 44.9361 16.3819C45.6136 15.7184 46.0005 14.8121 46.0117 13.8626C46.0229 12.913 45.6575 11.9979 44.9958 11.3185C44.3342 10.6391 43.4305 10.2512 42.4836 10.2399C40.4745 10.202 38.9252 11.7697 38.9317 13.8355C38.9371 15.8404 40.4279 17.3746 42.3992 17.4006Z" fill="#2389DA"/>
<path d="M55.7185 21.9258C53.9647 20.0304 51.8236 19.961 50.0081 21.7663L49.9833 21.7913C49.6789 22.0944 49.4379 22.4554 49.2743 22.8531C49.1107 23.2508 49.0279 23.6771 49.0306 24.1073C49.0333 24.5375 49.1216 24.9628 49.2901 25.3583C49.4587 25.7539 49.7043 26.1118 50.0125 26.411C50.9554 27.3275 51.8264 28.3156 52.6177 29.3664C54.3627 31.5756 55.6777 34.0941 56.4942 36.7907C56.6413 37.2638 56.7733 37.739 56.8924 38.2131C60.0148 50.6434 53.6055 63.3145 41.5671 68.1349C26.8054 74.0533 9.81722 64.3376 7.45324 48.57C7.25328 47.2559 7.14483 45.9294 7.12866 44.6002C7.04752 37.0934 10.1299 30.7128 15.8359 25.2165C22.2278 19.054 28.411 12.6745 34.6828 6.38718C36.244 4.8216 36.3522 2.54863 34.9349 1.08503C34.6127 0.74806 34.2268 0.478887 33.7996 0.293252C33.3725 0.107618 32.9127 0.00924715 32.4472 0.0038931C31.9817 -0.00146095 31.5198 0.0863088 31.0885 0.26207C30.6572 0.437832 30.2652 0.698057 29.9354 1.02753C22.362 8.63086 14.6804 16.1311 7.37534 23.984C2.74367 28.9607 0.649082 35.2501 0.108125 42.0593C-1.28213 59.3371 11.3167 74.0924 27.3972 76.6171C44.2621 79.2665 60.9366 67.8691 64.1163 51.0654C66.213 39.9729 63.4001 30.2257 55.7185 21.9258ZM32.73 69.9891H32.5753C32.6835 69.9891 32.7917 69.9891 32.8998 69.9891C32.849 69.9859 32.7917 69.9891 32.7343 69.9891H32.73ZM57.7038 45.3347C57.7038 45.4551 57.694 45.5745 57.6897 45.6938C57.6897 45.5669 57.7005 45.44 57.7038 45.313V45.3347Z" fill="#2389DA"/>
<path d="M52.3745 29.2449C52.4059 29.2861 52.4383 29.3252 52.4697 29.3664C52.4373 29.3262 52.407 29.285 52.3745 29.2449Z" fill="#2389DA"/>
<path d="M50.2191 44.6294C50.2191 44.8464 50.2104 45.071 50.2018 45.2901C50.2115 45.071 50.218 44.8507 50.2191 44.6294Z" fill="#2389DA"/>
<path d="M44.38 31.3487C43.8078 30.8202 43.0539 30.5343 42.2762 30.5509C41.4985 30.5675 40.7574 30.8853 40.2081 31.4376L40.1887 31.4572C38.4187 33.2463 38.4143 35.1872 40.1194 37.0219C43.3803 40.5328 44.0435 45.3944 41.8321 49.5943C39.7624 53.5229 35.1816 55.9391 30.961 55.3261C26.1162 54.6241 22.4658 51.2033 21.5733 46.4848C20.8614 42.7211 21.9563 39.4815 24.6026 36.781C27.8841 33.435 31.2283 30.152 34.527 26.8223L34.567 26.7799C36.5469 24.7359 36.0417 21.7425 33.5295 20.7541C32.1565 20.2117 30.8247 20.4189 29.7677 21.4713C26.0124 25.2144 22.0947 28.8207 18.6088 32.8058C14.4629 37.5481 13.2447 43.1128 14.847 48.9715C14.9191 49.2384 14.9974 49.506 15.0818 49.7744C14.9974 49.506 14.9191 49.2384 14.847 48.9715C15.2407 50.5622 15.8512 52.0908 16.6614 53.5142C16.4785 53.179 16.3076 52.8318 16.141 52.4792C16.3076 52.8318 16.4785 53.179 16.6614 53.5142C17.1231 54.327 17.6473 55.1026 18.2291 55.8338C17.6473 55.1026 17.1231 54.327 16.6614 53.5142C18.2269 56.3893 20.4005 58.6037 23.1377 60.1237C22.6736 59.8492 22.2246 59.5519 21.7896 59.2373C22.2224 59.5519 22.6736 59.8492 23.1377 60.1237C25.8148 61.7108 28.8573 62.5729 31.9668 62.6254C35.0763 62.6779 38.1461 61.9191 40.875 60.4234C43.6039 58.9276 45.8983 56.7463 47.5332 54.0934C49.1681 51.4404 50.0873 48.4069 50.2007 45.2903C50.2094 45.0733 50.218 44.8509 50.218 44.6295C50.2208 42.1302 49.703 39.6578 48.6977 37.3708C47.6924 35.0838 46.2217 33.0326 44.38 31.3487ZM19.4743 57.2432C20.0619 57.8426 20.6902 58.4005 21.3547 58.9129C20.6902 58.4005 20.0619 57.8426 19.4743 57.2432Z" fill="#2389DA"/>
</svg>
